HIERARCHY
ROOT Hips
{
  OFFSET 0 0 0
  CHANNELS 6 Xposition Yposition Zposition Zrotation Yrotation Xrotation
  JOINT LeftThigh
  {
    OFFSET 8.409438 0 -5.917753
    CHANNELS 3 Zrotation Yrotation Xrotation
    JOINT LeftLeg
    {
      OFFSET 0 0 -42.358652
      CHANNELS 3 Zrotation Yrotation Xrotation
      JOINT LeftFoot
      {
        OFFSET 0 0 -39.357303
        CHANNELS 3 Zrotation Yrotation Xrotation
      }
    }
  }
  JOINT RightThigh
  {
    OFFSET -8.409438 0 -5.917753
    CHANNELS 3 Zrotation Yrotation Xrotation
    JOINT RightLeg
    {
      OFFSET 0 0 -42.358652
      CHANNELS 3 Zrotation Yrotation Xrotation
      JOINT RightFoot
      {
        OFFSET 0 0 -39.357303
        CHANNELS 3 Zrotation Yrotation Xrotation
      }
    }
  }
  JOINT SpineLow
  {
    OFFSET 0 0 4.719101
    CHANNELS 3 Zrotation Yrotation Xrotation
    JOINT SpineMid
    {
      OFFSET 0 0 12.899191
      CHANNELS 3 Zrotation Yrotation Xrotation
      JOINT Chest
      {
        OFFSET 0 0 12.899191
        CHANNELS 3 Zrotation Yrotation Xrotation
        JOINT LeftShoulder
        {
          OFFSET 7.550562 1.41573 9.438202
          CHANNELS 3 Zrotation Yrotation Xrotation
          JOINT LeftArm
          {
            OFFSET 9.155056 0 4.247191
            CHANNELS 3 Zrotation Yrotation Xrotation
            JOINT LeftForearm
            {
              OFFSET 0 0 25.771955
              CHANNELS 3 Zrotation Yrotation Xrotation
              JOINT LeftHand
              {
                OFFSET 0 0 25.197169
                CHANNELS 3 Zrotation Yrotation Xrotation
              }
            }
          }
        }
        JOINT RightShoulder
        {
          OFFSET -7.550562 1.41573 9.438202
          CHANNELS 3 Zrotation Yrotation Xrotation
          JOINT RightArm
          {
            OFFSET -9.155056 0 4.247191
            CHANNELS 3 Zrotation Yrotation Xrotation
            JOINT RightForearm
            {
              OFFSET 0 0 -25.771955
              CHANNELS 3 Zrotation Yrotation Xrotation
              JOINT RightHand
              {
                OFFSET 0 0 -25.197169
                CHANNELS 3 Zrotation Yrotation Xrotation
              }
            }
          }
        }
        JOINT Neck
        {
          OFFSET 0 0 15.101124
          CHANNELS 3 Zrotation Yrotation Xrotation
          JOINT Head
          {
            OFFSET 0 0 11.325843
            CHANNELS 3 Zrotation Yrotation Xrotation
            End Site
            {
              OFFSET 0 0 14.157303
            }
          }
        }
      }
    }
  }
}
MOTION
Frames: 16
Frame Time: 0.0
0.0  93.25843  0.0  -7.253902  -28.140838  -91.86165  26.605571  -28.775545  -28.290298  6.777866  3.207249  31.333946  -7.052868  1.746669  -0.087342  -0.932366  11.15467  10.400793  -21.412488  -0.438071  12.228228  7.611383  4.941719  -4.666997  3.030755  -1.065005  0.49841  8.267013  -2.968123  1.227262  8.267014  -2.968123  1.227262  -23.817328  17.094857  -3.891809  -151.901759  59.480116  -94.592563  -31.790919  1.294553  82.116362  36.693391  -10.772398  21.748589  -2.32735  -12.432689  17.690464  96.874384  37.438042  31.15787  -26.594208  -0.34683  -111.440203  68.232691  24.235891  6.18177  9.942367  0.654086  0.833344  7.455819  0.504283  0.614551  
0.0  93.25843  0.0  -7.59301  -28.104651  -91.920463  27.098302  -29.289213  -28.338712  6.99164  3.192185  31.038493  -7.092718  1.751828  -0.089977  1.511277  9.708454  11.367332  -22.458147  -0.71688  11.455125  6.148858  4.775376  -4.517814  2.955246  -1.154638  0.490296  8.059898  -3.210421  1.197707  8.059897  -3.210421  1.197707  -24.210662  17.344434  -4.092667  -151.900774  59.545902  -94.700642  -31.823465  0.830402  82.245504  36.667301  -10.938983  21.494516  -2.663886  -12.571138  17.736548  97.056366  37.760636  31.454599  -27.676451  -0.24934  -110.981328  67.260384  24.004303  4.850243  9.911345  0.574031  1.071328  7.432467  0.448041  0.794425  
0.0  93.25843  0.0  -7.90264  -27.885774  -91.87937  27.260854  -29.706678  -28.463902  7.169517  3.231866  30.765964  -7.112441  1.733062  -0.074147  2.768005  8.742984  12.004267  -22.043348  -1.230718  10.710934  4.765668  4.904535  -4.316852  2.863483  -1.233085  0.467136  7.809292  -3.420246  1.129776  7.809292  -3.420246  1.129776  -24.451561  17.604188  -4.180179  -152.091544  59.632531  -94.699275  -31.959799  0.360019  82.258442  36.718137  -11.052509  21.230677  -2.953878  -12.696675  17.756441  97.052301  38.111505  31.684202  -27.04934  -0.542389  -110.673276  67.910778  24.018177  4.999029  9.959826  0.505695  1.346727  7.46875  0.40135  1.002112  
0.0  93.25843  0.0  -8.094869  -27.931654  -91.864892  27.536429  -29.969218  -28.549195  7.290649  3.297218  30.528286  -7.096312  1.671382  -0.060228  3.654211  8.331404  12.448903  -21.380063  -1.830336  10.157372  4.25169  5.205617  -4.083596  2.807973  -1.306112  0.427584  7.658958  -3.614115  1.016249  7.658958  -3.614115  1.016249  -24.523001  17.986075  -4.005284  -151.470051  59.793431  -94.502177  -32.207255  0.622643  82.569535  36.793041  -11.10893  20.941985  -3.139879  -12.718372  17.856558  96.876335  38.407952  31.827282  -26.471899  -0.735542  -110.302982  68.408235  23.935163  5.10594  9.994191  0.47286  1.658051  7.494384  0.381887  1.23619  
0.0  93.25843  0.0  -8.239615  -27.605714  -91.792787  27.484229  -30.047807  -28.700159  7.324838  3.344508  30.33323  -6.999669  1.570261  -0.011885  3.460494  8.193001  12.585243  -20.805712  -2.179624  9.80149  3.865687  5.234082  -3.989402  2.712086  -1.377882  0.374988  7.39915  -3.802816  0.869869  7.39915  -3.802816  0.869869  -24.530311  18.441528  -3.689954  -151.217362  59.778116  -93.972419  -32.377992  0.499022  82.550438  36.893774  -11.082563  20.700692  -3.289154  -12.615438  17.908495  96.588172  38.630053  31.898691  -25.978782  -0.841  -109.904711  68.706929  23.770005  5.225783  10.049142  0.539957  1.973213  7.535151  0.437564  1.47149  
0.0  93.25843  0.0  -8.082831  -27.968355  -91.95182  27.934175  -29.911065  -28.717009  7.22035  3.426801  30.119378  -6.946201  1.519961  0.012748  3.863042  8.401419  12.763117  -20.639374  -2.324531  9.535834  4.023721  5.171105  -3.930358  2.687052  -1.398361  0.361927  7.331321  -3.856981  0.833378  7.331321  -3.856981  0.833378  -24.291081  18.800746  -3.346441  -150.489777  59.771422  -93.419438  -32.48782  0.717418  82.710769  37.034216  -11.128779  20.491646  -3.043636  -12.463416  17.970422  96.239951  38.867969  31.856605  -25.639294  -0.906787  -109.508238  68.742348  23.584603  5.310223  9.962835  0.545455  2.076856  7.470319  0.443098  1.549225  
0.0  93.25843  0.0  -8.118899  -27.658256  -92.008442  28.012433  -29.860227  -28.824952  7.275232  3.452187  30.071436  -6.900786  1.424296  0.054904  3.725269  8.484062  12.96338  -20.977569  -2.4831  9.257262  4.376223  5.047974  -3.879108  2.609854  -1.424964  0.351573  7.12059  -3.927641  0.806777  7.12059  -3.927641  0.806777  -24.219232  18.973894  -3.050644  -150.172806  59.653697  -92.860741  -32.454085  0.651615  82.671  37.226726  -11.235361  20.326034  -2.918581  -12.344367  18.001564  95.928009  39.124198  31.791689  -25.335336  -1.05897  -109.156012  68.718472  23.475461  5.424886  10.01114  0.609452  2.217926  7.506191  0.49359  1.653971  
0.0  93.25843  0.0  -7.773045  -28.478629  -92.366154  28.371784  -29.800526  -28.943466  8.113647  3.174036  30.632647  -7.031379  1.466851  -0.074651  4.90463  8.725483  13.448093  -21.947849  -2.849279  8.848572  5.306126  5.238186  -3.788751  2.583738  -1.429302  0.330419  7.050376  -3.936959  0.750071  7.050376  -3.936959  0.750071  -23.243325  19.414917  -2.521499  -149.520302  59.709991  -92.635363  -32.416641  0.998109  82.906251  37.354129  -11.363151  20.201955  -2.038736  -12.041007  18.535347  95.790398  39.329791  31.702946  -26.339758  -1.099408  -108.70552  67.625041  23.135692  4.323612  10.1038  0.651432  2.404252  7.575346  0.528509  1.79298  
0.0  93.25843  0.0  -7.786214  -28.222348  -92.410368  28.607552  -29.734897  -29.147501  8.536607  3.054634  30.76762  -7.013436  1.496854  -0.049889  5.087549  8.678269  13.882542  -22.112223  -3.133018  8.292994  5.232593  5.153756  -3.734107  2.58202  -1.443389  0.319972  7.046262  -3.974285  0.720132  7.046263  -3.974285  0.720132  -23.438843  19.474883  -2.42217  -149.694459  59.672424  -92.661102  -32.256848  0.856732  82.911369  37.482312  -11.465055  20.119236  -2.053774  -11.933462  18.743751  95.754808  39.54262  31.610595  -26.255878  -1.419253  -108.381089  67.584007  23.188943  4.242119  9.922027  0.709277  2.486336  7.438686  0.572519  1.853791  
0.0  93.25843  0.0  -7.439978  -29.073222  -92.753987  29.624821  -29.548934  -29.155896  9.117212  2.931096  31.070815  -6.926079  1.581831  0.02475  6.241499  8.905408  14.45941  -21.608822  -3.314345  7.699517  4.770993  4.962897  -3.671089  2.654088  -1.422973  0.342985  7.242149  -3.921734  0.780879  7.242149  -3.921734  0.780879  -22.94769  19.573766  -2.330452  -150.03425  59.703804  -93.003509  -32.109048  0.768209  82.982183  37.577891  -11.598675  20.108847  -1.606699  -11.79092  18.99862  94.040563  40.89108  30.836589  -24.43072  -2.255463  -108.441431  67.368086  23.228055  3.890678  9.617152  0.725007  2.417149  7.210035  0.581978  1.801956  
0.0  93.25843  0.0  -7.359836  -28.769484  -92.812005  29.862911  -29.457422  -29.358887  9.681944  2.964415  31.332758  -6.840005  1.552864  0.078123  6.017853  9.05519  14.795935  -21.388693  -3.56921  7.183374  4.527298  4.89585  -3.647048  2.663003  -1.418651  0.342136  7.266607  -3.909933  0.778499  7.266607  -3.909932  0.778499  -23.116814  19.522596  -2.402966  -150.615156  59.700253  -93.457094  -31.953191  0.641045  83.028217  37.692081  -11.706394  20.139938  -1.529537  -11.758475  19.209793  94.213266  41.011976  30.731527  -24.548153  -2.480066  -108.123214  67.341155  23.329232  3.731662  9.398775  0.774705  2.475723  7.045974  0.619292  1.845365  
0.0  93.25843  0.0  -6.946586  -29.745296  -93.268663  30.384393  -29.393095  -29.437638  10.979947  2.683124  32.194192  -6.766513  1.55665  0.130932  7.113289  9.401519  15.417938  -21.173109  -3.689751  6.707677  4.148056  4.615885  -3.69062  2.731772  -1.392671  0.350721  7.45436  -3.840677  0.800767  7.45436  -3.840677  0.800767  -22.323559  19.621253  -2.156571  -151.109165  59.70036  -93.978731  -31.723465  0.533988  83.077984  38.106878  -11.266003  20.451132  -0.800507  -11.72384  19.668157  94.507009  41.014116  30.598364  -24.607775  -2.653996  -107.790981  67.273358  23.393408  3.55405  9.625689  0.783119  2.74568  7.21581  0.63079  2.047494  
0.0  93.25843  0.0  -6.756403  -29.521222  -93.341789  30.686342  -29.213367  -29.556926  11.671548  2.77067  32.484338  -6.729665  1.52256  0.180701  7.110761  9.644756  15.832321  -21.505682  -3.849556  6.137625  4.257395  4.516083  -3.679556  2.753156  -1.366173  0.363142  7.512255  -3.769986  0.836446  7.512254  -3.769986  0.836446  -22.391749  19.479213  -2.330392  -151.624521  59.660094  -94.433223  -31.511171  0.521367  83.162519  38.31694  -11.490555  20.309401  -0.577697  -11.776565  19.659933  94.655224  41.125126  30.383788  -24.627452  -2.839369  -107.419413  67.21791  23.459995  3.368609  9.501441  0.834197  2.814354  7.122295  0.669616  2.098358  
0.0  93.25843  0.0  -6.292731  -30.443246  -93.708217  31.85116  -28.94758  -29.412164  12.454825  2.775163  32.810204  -6.691194  1.543987  0.243444  8.195813  10.017087  16.451118  -22.145879  -4.224369  5.574789  4.548385  4.592397  -3.694888  2.830169  -1.324946  0.362549  7.723172  -3.658243  0.835183  7.723173  -3.658243  0.835183  -21.677888  19.484716  -2.174318  -151.99912  59.675474  -94.837808  -31.162189  0.547865  83.242503  38.584478  -11.920037  19.881661  0.202687  -11.82977  19.920054  94.992469  41.162799  30.2417  -24.570218  -3.083527  -107.045294  67.161446  23.536521  3.139467  9.797043  0.849441  3.122185  7.343538  0.687368  2.328686  
0.0  93.25843  0.0  -6.055984  -30.251448  -93.745573  32.059056  -28.640044  -29.450026  13.198824  2.74664  33.092754  -6.621335  1.579733  0.311954  8.21399  10.397565  16.864267  -22.280106  -4.484383  4.986831  4.453006  4.514197  -3.721904  2.876984  -1.286273  0.34912  7.852141  -3.551627  0.800456  7.852141  -3.551626  0.800456  -21.7288  19.347228  -2.217712  -152.364526  59.655431  -95.136693  -31.004493  0.670079  83.331397  38.827597  -12.213037  19.582588  0.416894  -11.965865  19.883924  95.136679  41.347116  30.070153  -24.510256  -3.330157  -106.704283  67.120485  23.60939  2.886212  9.694103  0.880348  3.304885  7.265928  0.712928  2.465385  
0.0  93.25843  0.0  -5.759905  -30.346831  -93.929478  32.319305  -28.326453  -29.317767  13.934661  2.744861  33.430262  -6.358934  1.592476  0.432771  8.182521  10.865074  17.297473  -22.633979  -4.816623  4.393837  4.385032  4.402021  -3.704783  2.813218  -1.270327  0.295386  7.680611  -3.501211  0.658976  7.680611  -3.501211  0.658975  -20.687879  19.478187  -1.85123  -153.10473  59.817038  -95.308666  -31.080412  0.410406  83.125881  39.034786  -12.461618  19.281427  1.404655  -12.019392  20.230552  95.359372  41.501872  29.955165  -24.412745  -3.538304  -106.419228  67.086654  23.639328  2.629744  10.103945  0.920146  3.763343  7.572474  0.752614  2.808142  
